<?xml version="1.0" encoding="utf-8"?>
<!-- Generator: Adobe Illustrator 16.0.0, SVG Export Plug-In . SVG Version: 6.00 Build 0)  -->
<!DOCTYPE svg PUBLIC "-//W3C//DTD SVG 1.1//EN" "http://www.w3.org/Graphics/SVG/1.1/DTD/svg11.dtd">
<svg version="1.1" xmlns="http://www.w3.org/2000/svg" xmlns:xlink="http://www.w3.org/1999/xlink" x="0px" y="0px" width="160px"
	 height="80.815px" viewBox="0 0 160 80.815" enable-background="new 0 0 160 80.815" xml:space="preserve">
<g id="backgrounds" display="none">
	<rect x="-29" y="-29.592" display="inline" fill="#D9272D" width="218" height="140"/>
</g>
<g id="logos">
	<path fill="#FFFFFF" d="M153.738,42.92l-0.281-0.091c0,0,3.956-0.835,5.723-4.703c1.036-2.268,1.107-4.861,0.115-7.151
		c-1.688-3.896-4.161-7.297-7.349-10.109c-1.58-1.394-3.609-2.152-5.716-2.162c-5.124-0.022-7.348,4.064-7.348,4.064V8.657
		c0-4.773-3.81-8.63-8.646-8.657c-2.04-0.011-5.866,0.678-8.395,1.355c-2.527,0.677-4.998,1.587-7.343,2.706
		c-2.167,1.034-3.82,2.943-4.533,5.239c-0.714,2.299-0.433,4.813,0.771,6.898l7.056,12.221c0,0-1.695-1.007-4.061-1.007
		c-3.723,0-7.02,2.368-8.203,5.891c-0.087,0.259-0.17,0.52-0.25,0.78c-1.125-1.083-2.487-2.056-4.145-2.844
		c-2.257-1.072-4.783-1.638-7.307-1.638c-1.926,0-3.811,0.327-5.562,0.956c-1.304-0.687-2.786-1.07-4.345-1.07
		c-2.21,0-4.241,0.775-5.84,2.066V29.85c0-5.134-4.176-9.31-9.31-9.31c-5.133,0-9.31,4.176-9.31,9.31v5.138
		c-3.508-3.674-8.184-5.182-12.406-5.182c-3.166,0-7.374,1.03-10.915,3.943c-1.187-1.659-2.872-2.88-4.853-3.494
		c-0.903-0.279-1.839-0.421-2.781-0.421c-4.144,0-7.752,2.661-8.978,6.622l-0.396,1.279l-1.279-2.622
		c-1.724-3.763-7.047-6.986-12.57-4.325c-2.262,1.09-3.949,3.015-4.766,5.389c-0.817,2.375-0.66,4.925,0.441,7.181l8.912,18.259
		c-2.64,1.031-4.601,3.153-5.421,6.032c-0.789,2.769-0.289,5.651,1.372,7.907c1.304,1.771,3.874,3.908,8.709,4.025
		c0.175,0.004,0.349,0.006,0.521,0.006c6.783,0,11.747-3.354,13.617-9.202c0.77-2.407,1.662-5.238,2.576-8.164
		c0.167,0.373,0.342,0.739,0.53,1.094c2.938,5.569,8.303,8.636,15.107,8.636c6.413,0,10.913-2.165,13.695-4.981
		c1.575,2.914,4.658,4.897,8.195,4.897c2.21,0,4.242-0.775,5.84-2.066v1.705c0,5.134,4.177,9.31,9.31,9.31
		c5.052,0,9.177-4.045,9.307-9.067c0.046,0,7.32,0.412,12.109-4.694c0.494-0.526,1.373-1.436,2.271-2.951
		c1.141,0.628,2.451,0.986,3.845,0.986c1.128,0,2.202-0.235,3.175-0.658c0.536,0.684,1.176,1.292,1.907,1.793
		c3.449,2.369,7.447,3.987,11.561,4.678c0.475,0.08,0.958,0.12,1.438,0.12c4.686,0,8.485-3.67,8.648-8.355l0.01-0.298l0.159,0.253
		c1.592,2.548,4.337,4.069,7.344,4.069c2.004,0,3.961-0.704,5.508-1.981c3.217-2.655,5.871-6.055,7.674-9.832
		c1.073-2.249,1.125-4.851,0.141-7.141C158.033,45.447,156.109,43.691,153.738,42.92z"/>
	<path fill="#231F20" d="M111.451,55.592c1.003,0,1.844,0.787,1.844,1.819c0,1.051-0.841,1.838-1.844,1.838
		c-1.003,0-1.843-0.787-1.843-1.819C109.608,56.379,110.448,55.592,111.451,55.592z M111.451,58.983c0.86,0,1.549-0.676,1.549-1.572
		c0-0.878-0.689-1.554-1.549-1.554c-0.861,0-1.55,0.675-1.55,1.572C109.901,58.308,110.59,58.983,111.451,58.983z M110.767,56.374
		h0.778c0.506,0,0.746,0.187,0.746,0.61c0,0.378-0.244,0.54-0.561,0.574l0.611,0.936h-0.32l-0.579-0.913h-0.379v0.913h-0.296V56.374
		z M111.062,57.317h0.364c0.295,0,0.571-0.016,0.571-0.349c0-0.294-0.251-0.329-0.479-0.329h-0.456V57.317z"/>
	<path fill-rule="evenodd" clip-rule="evenodd" d="M72.057,62.557c0,1.815-1.471,3.287-3.287,3.287
		c-1.815,0-3.287-1.471-3.287-3.287V29.85c0-1.815,1.472-3.287,3.287-3.287c1.815,0,3.287,1.471,3.287,3.287V62.557z"/>
	<path d="M43.604,53.407l11.807,0.012c0.082,0,0.163-0.006,0.244-0.012c1.638-0.124,3.192-1.483,3.198-3.66c0-0.004,0-0.008,0-0.013
		c-0.002-0.057-0.008-0.11-0.011-0.167C58.257,37.567,50.549,35.83,47.054,35.83c-3.635,0-11.865,2.146-11.865,15.49
		c0.062,5.018,1.137,14.609,11.69,14.609c9.116,0,11.156-5.265,11.156-6.607c0-1.981-1.65-3.662-3.514-3.029
		c-1.512,0.513-3.586,3.525-6.928,3.525c-4.782,0-5.401-4.373-5.401-5.304C42.192,53.744,42.594,53.445,43.604,53.407z
		 M42.175,47.533c0.219-4.541,3.658-5.287,5.205-5.287c1.555,0,5.007,0.756,5.19,5.364c0,0.244-0.13,0.388-0.274,0.388H42.46
		C42.302,47.998,42.159,47.837,42.175,47.533z"/>
	<path d="M16.639,61.757L6.371,40.716c-0.818-1.676-0.123-3.697,1.553-4.515c1.676-0.818,3.697-0.123,4.515,1.554l7.95,16.291
		l4.893-15.808c0.551-1.781,2.441-2.779,4.224-2.227c1.781,0.551,2.779,2.442,2.227,4.224c0,0-5.499,17.983-8.804,28.317
		c-1.093,3.418-3.958,5.114-8.253,5.009c-4.248-0.102-4.906-2.607-4.436-4.259c0.518-1.816,2.034-2.365,3.518-2.357
		C17.595,66.962,18.084,64.638,16.639,61.757z"/>
	<path d="M104.527,49.492c0-4.313-0.53-10.224-5.977-12.811c-3.072-1.459-6.857-1.434-9.767,0.248
		c-0.583,0.337-1.162,0.711-1.673,1.093c-0.349-1.44-1.643-2.511-3.19-2.511c-1.815,0-3.287,1.472-3.287,3.287v32.708
		c0,1.815,1.472,3.287,3.287,3.287c1.815,0,3.287-1.472,3.287-3.287v-8.584c0,0,2.208,2.707,5.723,2.798
		C105.413,66.045,104.595,52.469,104.527,49.492z M98.017,51.988c0,2.598,0,7.262-4.724,7.262c-4.736,0-4.723-4.664-4.723-7.262
		v-2.373c0-2.598,0-7.262,4.723-7.262c4.737,0,4.724,4.664,4.724,7.262V51.988z"/>
	<path fill-rule="evenodd" clip-rule="evenodd" fill="#D9272D" d="M114.885,33.703l11.477,5.597
		c2.208,1.077,1.867,4.323-0.517,4.917l-12.389,3.089c-1.545,0.385-3.072-0.681-3.254-2.263c-0.39-3.384-0.005-6.727,1.035-9.821
		C111.743,33.72,113.46,33.008,114.885,33.703z"/>
	<path fill-rule="evenodd" clip-rule="evenodd" fill="#D9272D" d="M119.48,57.33l8.542-9.488c1.644-1.826,4.67-0.603,4.585,1.852
		l-0.446,12.764c-0.056,1.591-1.5,2.768-3.069,2.504c-3.301-0.554-6.423-1.83-9.148-3.702
		C118.634,60.36,118.417,58.511,119.48,57.33z"/>
	<path fill-rule="evenodd" clip-rule="evenodd" fill="#D9272D" d="M139.734,44.703l12.142,3.946
		c1.511,0.491,2.249,2.201,1.564,3.635c-1.424,2.984-3.49,5.65-6.072,7.781c-1.228,1.013-3.067,0.715-3.91-0.634l-6.768-10.832
		C135.389,46.516,137.398,43.944,139.734,44.703z"/>
	<path fill-rule="evenodd" clip-rule="evenodd" fill="#D9272D" d="M152.082,36.957l-12.274,3.519c-2.361,0.677-4.28-1.964-2.906-4
		l7.141-10.586c0.887-1.314,2.729-1.556,3.918-0.507c2.448,2.16,4.452,4.862,5.807,7.987
		C154.401,34.832,153.613,36.518,152.082,36.957z"/>
	<path fill-rule="evenodd" clip-rule="evenodd" fill="#D9272D" d="M123.402,7.173c-2.209,0.592-4.317,1.374-6.31,2.325
		c-1.383,0.659-1.905,2.362-1.139,3.689l11.997,20.778c1.346,2.331,4.909,1.376,4.909-1.315V8.657c0-1.532-1.304-2.746-2.831-2.625
		C127.827,6.205,125.611,6.582,123.402,7.173z"/>
</g>
</svg>
